<svg xmlns="http://www.w3.org/2000/svg" xmlns:xlink="http://www.w3.org/1999/xlink" id="visual" viewBox="0 0 900 600" width="900" height="600"><rect x="0" y="0" width="900" height="600" fill="#ffffff"></rect><defs><linearGradient id="grad1_0" x1="33.3%" y1="0%" x2="100%" y2="100%"><stop offset="20%" stop-color="#000000" stop-opacity="1"></stop><stop offset="80%" stop-color="#000000" stop-opacity="1"></stop></linearGradient></defs><defs><linearGradient id="grad1_1" x1="33.3%" y1="0%" x2="100%" y2="100%"><stop offset="20%" stop-color="#000000" stop-opacity="1"></stop><stop offset="80%" stop-color="#ffffff" stop-opacity="1"></stop></linearGradient></defs><defs><linearGradient id="grad2_0" x1="0%" y1="0%" x2="66.7%" y2="100%"><stop offset="20%" stop-color="#000000" stop-opacity="1"></stop><stop offset="80%" stop-color="#000000" stop-opacity="1"></stop></linearGradient></defs><defs><linearGradient id="grad2_1" x1="0%" y1="0%" x2="66.7%" y2="100%"><stop offset="20%" stop-color="#ffffff" stop-opacity="1"></stop><stop offset="80%" stop-color="#000000" stop-opacity="1"></stop></linearGradient></defs><g transform="translate(900, 0)"><path d="M0 432.7C-51.8 418.1 -103.5 403.5 -160 386.2C-216.4 368.8 -277.6 348.7 -305.9 305.9C-334.3 263.2 -329.9 197.9 -345.5 143.1C-361.2 88.4 -396.9 44.2 -432.7 0L0 0Z" fill="#777777"></path><path d="M0 216.3C-25.9 209.1 -51.8 201.8 -80 193.1C-108.2 184.4 -138.8 174.3 -153 153C-167.2 131.6 -164.9 98.9 -172.8 71.6C-180.6 44.2 -198.5 22.1 -216.3 0L0 0Z" fill="#000000"></path></g><g transform="translate(0, 600)"><path d="M0 -432.7C61.6 -428.3 123.3 -424 161.9 -390.8C200.5 -357.6 216 -295.7 257.4 -257.4C298.8 -219.1 366.2 -204.5 399.7 -165.6C433.3 -126.6 433 -63.3 432.7 0L0 0Z" fill="#777777"></path><path d="M0 -216.3C30.8 -214.2 61.6 -212 80.9 -195.4C100.2 -178.8 108 -147.8 128.7 -128.7C149.4 -109.6 183.1 -102.3 199.9 -82.8C216.6 -63.3 216.5 -31.7 216.3 0L0 0Z" fill="#000000"></path></g></svg>