<svg xmlns="http://www.w3.org/2000/svg" xmlns:xlink="http://www.w3.org/1999/xlink" id="blobSvg" x="0px" y="0px" viewBox="0 0 149.9 26.1" style="enable-background:new 0 0 149.9 26.1;" xml:space="preserve">
<style type="text/css">
	.st0{fill:#05CFC9;}
	.st1{fill:#FFFFFF;}
</style>
<circle class="st0" cx="22" cy="24" r="1.8"></circle>
<circle class="st0" cx="82" cy="24" r="1.8"></circle>
<circle class="st0" cx="48" cy="24" r="1.8"></circle>
<g>
	<path class="st1" d="M97.2,4.1c0.5,0.3,0.9,0.8,1.2,1.4c0.3,0.6,0.4,1.3,0.4,2c0,0.8-0.1,1.5-0.4,2.1c-0.3,0.6-0.7,1.1-1.2,1.4   c-0.5,0.3-1.1,0.5-1.7,0.5c-0.6,0-1.1-0.1-1.5-0.4c-0.4-0.3-0.8-0.6-1-1.1v1.4h-1.2V0.4H93v4.7c0.2-0.5,0.5-0.8,1-1.1   c0.4-0.3,0.9-0.4,1.5-0.4C96.1,3.6,96.7,3.8,97.2,4.1z M96.9,9.6c0.4-0.5,0.6-1.2,0.6-2.1c0-0.9-0.2-1.6-0.6-2.1   c-0.4-0.5-1-0.7-1.7-0.7c-0.7,0-1.3,0.2-1.7,0.7C93.2,5.9,93,6.6,93,7.5c0,0.9,0.2,1.6,0.6,2.1c0.4,0.5,0.9,0.8,1.7,0.8   C96,10.4,96.5,10.2,96.9,9.6z"></path>
	<path class="st1" d="M106.8,3.8v7.5h-1.2v-1.3c-0.2,0.5-0.6,0.8-1,1c-0.4,0.2-0.9,0.4-1.4,0.4c-0.9,0-1.5-0.3-2-0.8   c-0.4-0.5-0.7-1.2-0.7-2.2V3.8h1.2v4.6c0,0.7,0.1,1.2,0.4,1.5c0.3,0.3,0.7,0.5,1.2,0.5c0.6,0,1.2-0.2,1.6-0.6   c0.4-0.4,0.6-1,0.6-1.7V3.8H106.8z"></path>
	<path class="st1" d="M108.7,10.5l0.4-0.9c0.4,0.3,0.8,0.5,1.2,0.7c0.4,0.1,0.9,0.2,1.4,0.2c0.5,0,1-0.1,1.3-0.3   c0.3-0.2,0.4-0.5,0.4-0.8c0-0.3-0.1-0.5-0.3-0.7c-0.2-0.2-0.5-0.3-1-0.4l-1.2-0.3c-0.6-0.1-1.1-0.4-1.4-0.7   c-0.3-0.4-0.5-0.8-0.5-1.3c0-0.7,0.3-1.2,0.8-1.6c0.5-0.4,1.2-0.6,2.1-0.6c0.5,0,1,0.1,1.5,0.3c0.5,0.2,0.9,0.4,1.2,0.7L114,5.5   c-0.7-0.6-1.4-0.9-2.2-0.9c-0.5,0-0.9,0.1-1.2,0.3s-0.4,0.5-0.4,0.8c0,0.3,0.1,0.5,0.3,0.7c0.2,0.2,0.5,0.3,0.9,0.4l1.3,0.3   c0.7,0.2,1.2,0.4,1.5,0.8c0.3,0.3,0.5,0.8,0.5,1.3c0,0.7-0.3,1.2-0.8,1.6c-0.5,0.4-1.2,0.6-2.1,0.6   C110.4,11.4,109.4,11.1,108.7,10.5z"></path>
	<path class="st1" d="M116.3,0.5h1.5v1.4h-1.5V0.5z M116.4,11.3V3.8h1.2v7.5H116.4z"></path>
	<path class="st1" d="M126.3,6.6v4.7h-1.2V6.7c0-0.7-0.1-1.2-0.4-1.5c-0.3-0.3-0.7-0.5-1.3-0.5c-0.7,0-1.2,0.2-1.6,0.6   c-0.4,0.4-0.6,1-0.6,1.7v4.3h-1.2V3.8h1.2V5c0.2-0.5,0.6-0.8,1-1.1s0.9-0.4,1.5-0.4C125.4,3.6,126.3,4.6,126.3,6.6z"></path>
	<path class="st1" d="M134.7,7.8h-5.4c0,0.9,0.3,1.5,0.7,2c0.4,0.4,1,0.7,1.8,0.7c0.9,0,1.6-0.3,2.4-0.9l0.4,0.9   c-0.3,0.3-0.7,0.6-1.2,0.7s-1,0.3-1.5,0.3c-1.2,0-2.1-0.3-2.7-1c-0.7-0.7-1-1.6-1-2.9c0-0.8,0.1-1.5,0.4-2.1   c0.3-0.6,0.7-1.1,1.2-1.4c0.5-0.3,1.1-0.5,1.8-0.5c1,0,1.8,0.3,2.3,1c0.6,0.7,0.8,1.6,0.8,2.7V7.8z M130.1,5.2   c-0.4,0.4-0.6,1-0.7,1.8h4.3c0-0.8-0.2-1.3-0.6-1.8c-0.4-0.4-0.9-0.6-1.5-0.6C131,4.6,130.5,4.8,130.1,5.2z"></path>
	<path class="st1" d="M136.1,10.5l0.4-0.9c0.4,0.3,0.8,0.5,1.2,0.7c0.4,0.1,0.9,0.2,1.4,0.2c0.5,0,1-0.1,1.3-0.3   c0.3-0.2,0.4-0.5,0.4-0.8c0-0.3-0.1-0.5-0.3-0.7c-0.2-0.2-0.5-0.3-1-0.4l-1.2-0.3c-0.6-0.1-1.1-0.4-1.4-0.7   c-0.3-0.4-0.5-0.8-0.5-1.3c0-0.7,0.3-1.2,0.8-1.6c0.5-0.4,1.2-0.6,2.1-0.6c0.5,0,1,0.1,1.5,0.3c0.5,0.2,0.9,0.4,1.2,0.7l-0.4,0.9   c-0.7-0.6-1.4-0.9-2.2-0.9c-0.5,0-0.9,0.1-1.2,0.3s-0.4,0.5-0.4,0.8c0,0.3,0.1,0.5,0.3,0.7c0.2,0.2,0.5,0.3,0.9,0.4l1.3,0.3   c0.7,0.2,1.2,0.4,1.5,0.8c0.3,0.3,0.5,0.8,0.5,1.3c0,0.7-0.3,1.2-0.8,1.6c-0.5,0.4-1.2,0.6-2.1,0.6   C137.8,11.4,136.8,11.1,136.1,10.5z"></path>
	<path class="st1" d="M143.4,10.5l0.4-0.9c0.4,0.3,0.8,0.5,1.2,0.7c0.4,0.1,0.9,0.2,1.4,0.2c0.5,0,1-0.1,1.3-0.3   c0.3-0.2,0.4-0.5,0.4-0.8c0-0.3-0.1-0.5-0.3-0.7c-0.2-0.2-0.5-0.3-1-0.4l-1.2-0.3c-0.6-0.1-1.1-0.4-1.4-0.7   c-0.3-0.4-0.5-0.8-0.5-1.3c0-0.7,0.3-1.2,0.8-1.6c0.5-0.4,1.2-0.6,2.1-0.6c0.5,0,1,0.1,1.5,0.3c0.5,0.2,0.9,0.4,1.2,0.7l-0.4,0.9   c-0.7-0.6-1.4-0.9-2.2-0.9c-0.5,0-0.9,0.1-1.2,0.3s-0.4,0.5-0.4,0.8c0,0.3,0.1,0.5,0.3,0.7c0.2,0.2,0.5,0.3,0.9,0.4l1.3,0.3   c0.7,0.2,1.2,0.4,1.5,0.8c0.3,0.3,0.5,0.8,0.5,1.3c0,0.7-0.3,1.2-0.8,1.6c-0.5,0.4-1.2,0.6-2.1,0.6   C145.1,11.4,144.1,11.1,143.4,10.5z"></path>
</g>
<g>
	<path class="st1" d="M96.8,19c0.5,0.5,0.7,1.2,0.7,2.2V26h-1.2v-1.3c-0.2,0.4-0.5,0.8-0.9,1C95,26,94.5,26.1,94,26.1   c-0.5,0-0.9-0.1-1.3-0.3c-0.4-0.2-0.7-0.5-0.9-0.8c-0.2-0.4-0.3-0.7-0.3-1.2c0-0.6,0.1-1,0.4-1.3c0.3-0.3,0.7-0.5,1.4-0.7   c0.6-0.1,1.5-0.2,2.7-0.2h0.3v-0.5c0-0.6-0.1-1.1-0.4-1.4c-0.3-0.3-0.7-0.4-1.2-0.4c-0.8,0-1.7,0.3-2.5,0.8l-0.4-0.9   c0.4-0.3,0.8-0.5,1.4-0.7c0.5-0.2,1.1-0.3,1.6-0.3C95.6,18.3,96.3,18.5,96.8,19z M95.7,24.5c0.4-0.4,0.6-1,0.6-1.6v-0.4H96   c-0.9,0-1.6,0-2,0.1c-0.5,0.1-0.8,0.2-1,0.4c-0.2,0.2-0.3,0.4-0.3,0.8c0,0.4,0.1,0.7,0.4,1c0.3,0.3,0.7,0.4,1.1,0.4   C94.8,25.1,95.3,24.9,95.7,24.5z"></path>
	<path class="st1" d="M106.3,15.1V26H105v-1.4c-0.2,0.5-0.5,0.8-1,1.1c-0.4,0.3-0.9,0.4-1.5,0.4c-0.6,0-1.2-0.2-1.7-0.5   c-0.5-0.3-0.9-0.8-1.2-1.4c-0.3-0.6-0.4-1.3-0.4-2.1c0-0.8,0.1-1.5,0.4-2c0.3-0.6,0.7-1,1.2-1.4c0.5-0.3,1.1-0.5,1.7-0.5   c0.6,0,1.1,0.1,1.5,0.4c0.4,0.3,0.8,0.6,1,1.1v-4.7H106.3z M104.5,24.4c0.4-0.5,0.6-1.2,0.6-2.1c0-0.9-0.2-1.6-0.6-2.1   c-0.4-0.5-0.9-0.7-1.7-0.7c-0.7,0-1.3,0.2-1.7,0.7c-0.4,0.5-0.6,1.2-0.6,2.1c0,0.9,0.2,1.6,0.6,2.1c0.4,0.5,1,0.8,1.7,0.8   C103.5,25.1,104.1,24.9,104.5,24.4z"></path>
	<path class="st1" d="M113.8,18.5h1.2l-3.2,7.5h-1.2l-3.2-7.5h1.3l2.5,6.2L113.8,18.5z"></path>
	<path class="st1" d="M116.2,15.2h1.5v1.4h-1.5V15.2z M116.3,26v-7.5h1.2V26H116.3z"></path>
	<path class="st1" d="M119.4,25.2l0.4-0.9c0.4,0.3,0.8,0.5,1.2,0.7c0.4,0.1,0.9,0.2,1.4,0.2c0.5,0,1-0.1,1.3-0.3   c0.3-0.2,0.4-0.5,0.4-0.8c0-0.3-0.1-0.5-0.3-0.7c-0.2-0.2-0.5-0.3-1-0.4l-1.2-0.3c-0.6-0.1-1.1-0.4-1.4-0.7   c-0.3-0.4-0.5-0.8-0.5-1.3c0-0.7,0.3-1.2,0.8-1.6c0.5-0.4,1.2-0.6,2.1-0.6c0.5,0,1,0.1,1.5,0.3c0.5,0.2,0.9,0.4,1.2,0.7l-0.4,0.9   c-0.7-0.6-1.4-0.9-2.2-0.9c-0.5,0-0.9,0.1-1.2,0.3s-0.4,0.5-0.4,0.8c0,0.3,0.1,0.5,0.3,0.7c0.2,0.2,0.5,0.3,0.9,0.4l1.3,0.3   c0.7,0.2,1.2,0.4,1.5,0.8c0.3,0.3,0.5,0.8,0.5,1.3c0,0.7-0.3,1.2-0.8,1.6c-0.5,0.4-1.2,0.6-2.1,0.6   C121.1,26.1,120.1,25.8,119.4,25.2z"></path>
	<path class="st1" d="M128.4,25.7c-0.5-0.3-0.9-0.8-1.2-1.4c-0.3-0.6-0.4-1.3-0.4-2.1c0-0.8,0.1-1.5,0.4-2.1   c0.3-0.6,0.7-1.1,1.2-1.4c0.5-0.3,1.1-0.5,1.8-0.5c0.7,0,1.3,0.2,1.9,0.5c0.5,0.3,0.9,0.8,1.2,1.4c0.3,0.6,0.4,1.3,0.4,2.1   c0,0.8-0.1,1.5-0.4,2.1c-0.3,0.6-0.7,1.1-1.2,1.4c-0.5,0.3-1.2,0.5-1.9,0.5C129.5,26.1,128.9,26,128.4,25.7z M131.9,24.4   c0.4-0.5,0.6-1.2,0.6-2.1c0-0.9-0.2-1.6-0.6-2.1c-0.4-0.5-1-0.8-1.7-0.8c-0.7,0-1.3,0.3-1.7,0.8c-0.4,0.5-0.6,1.2-0.6,2.1   c0,0.9,0.2,1.6,0.6,2.1c0.4,0.5,0.9,0.7,1.7,0.7C130.9,25.1,131.5,24.9,131.9,24.4z"></path>
	<path class="st1" d="M139.8,19.4l-0.8,0.1c-0.8,0.1-1.3,0.3-1.6,0.7c-0.3,0.4-0.5,0.9-0.5,1.5V26h-1.2v-7.5h1.2v1.3   c0.4-0.9,1.2-1.4,2.4-1.5l0.4,0L139.8,19.4z"></path>
	<path class="st1" d="M140.4,25.2l0.4-0.9c0.4,0.3,0.8,0.5,1.2,0.7c0.4,0.1,0.9,0.2,1.4,0.2c0.5,0,1-0.1,1.3-0.3   c0.3-0.2,0.4-0.5,0.4-0.8c0-0.3-0.1-0.5-0.3-0.7c-0.2-0.2-0.5-0.3-1-0.4l-1.2-0.3c-0.6-0.1-1.1-0.4-1.4-0.7   c-0.3-0.4-0.5-0.8-0.5-1.3c0-0.7,0.3-1.2,0.8-1.6c0.5-0.4,1.2-0.6,2.1-0.6c0.5,0,1,0.1,1.5,0.3c0.5,0.2,0.9,0.4,1.2,0.7l-0.4,0.9   c-0.7-0.6-1.4-0.9-2.2-0.9c-0.5,0-0.9,0.1-1.2,0.3s-0.4,0.5-0.4,0.8c0,0.3,0.1,0.5,0.3,0.7c0.2,0.2,0.5,0.3,0.9,0.4l1.3,0.3   c0.7,0.2,1.2,0.4,1.5,0.8c0.3,0.3,0.5,0.8,0.5,1.3c0,0.7-0.3,1.2-0.8,1.6c-0.5,0.4-1.2,0.6-2.1,0.6   C142.1,26.1,141.1,25.8,140.4,25.2z"></path>
</g>
<g>
	<path class="st1" d="M0,22.6l1.2-2.4c1.3,1.1,2.6,1.9,4,2.3C6.5,23,8,23.2,9.7,23.2c2,0,3.5-0.4,4.6-1.1c1.1-0.7,1.6-1.7,1.6-3   c0-1.1-0.4-2-1.1-2.6c-0.7-0.7-1.9-1.2-3.4-1.5l-4.2-1c-2-0.5-3.6-1.3-4.7-2.5C1.4,10.4,0.9,9,0.9,7.4c0-2.1,0.8-3.9,2.5-5.2   c1.7-1.3,3.9-2,6.7-2c1.7,0,3.4,0.3,4.9,0.8c1.5,0.6,2.8,1.4,3.7,2.4l-1.2,2.4c-1.2-1-2.3-1.8-3.5-2.2c-1.2-0.5-2.5-0.7-3.9-0.7   c-1.9,0-3.3,0.4-4.4,1.1C4.6,4.8,4.1,5.8,4.1,7.2c0,1.1,0.3,2,1,2.6c0.7,0.7,1.7,1.2,3.1,1.5l4.2,1c4.5,1,6.7,3.2,6.7,6.6   c0,2.1-0.9,3.8-2.6,5c-1.7,1.3-4,1.9-6.9,1.9C5.7,25.9,2.5,24.8,0,22.6z"></path>
</g>
<g>
	<path class="st1" d="M46.1,0.7h3.2L38.7,25.4h-3.2L25,0.7h3.3l8.9,21.5L46.1,0.7z"></path>
</g>
<g>
	<path class="st1" d="M77.5,10v15.7h-3.1V10.2c0-2.4-0.5-4.2-1.5-5.3c-1-1.1-2.5-1.7-4.7-1.7c-2.4,0-4.4,0.7-5.9,2.2   c-1.5,1.5-2.2,3.5-2.2,6v14.3H57V1h3.1v4.2c0.8-1.6,1.9-2.8,3.4-3.6c1.5-0.8,3.2-1.2,5.1-1.2C74.5,0.4,77.5,3.6,77.5,10z"></path>
</g>
</svg>