<svg xmlns="http://www.w3.org/2000/svg" xmlns:xlink="http://www.w3.org/1999/xlink" id="Layer_1" x="0px" y="0px" viewBox="0 0 100 14" style="enable-background:new 0 0 100 14;" xml:space="preserve">
<style type="text/css">
	.st0{fill:#FFFFFF;}
</style>
<g>
	<path class="st0" d="M2.6,13.4v-0.2L3.4,13c0.5-0.1,0.8-0.4,0.8-1V1H2.6c-0.5,0-0.8,0.1-1,0.4c-0.2,0.3-0.4,0.6-0.7,1L0.2,3.8H0   l0.1-3.2h11.2l0.1,3.2h-0.2l-0.7-1.4c-0.2-0.4-0.4-0.8-0.6-1C9.7,1.1,9.3,1,8.8,1H7.2v11.1c0,0.5,0.3,0.9,0.8,1l0.8,0.2v0.2H2.6z"></path>
	<path class="st0" d="M12.7,13.4v-0.2l0.4-0.2c0.3-0.1,0.4-0.2,0.5-0.4c0.1-0.2,0.1-0.4,0.1-0.6V1.9c0-0.3,0-0.5-0.1-0.6   c-0.1-0.2-0.3-0.3-0.5-0.4l-0.4-0.2V0.6h4.9v0.2l-0.3,0.1c-0.2,0.1-0.4,0.2-0.5,0.4c-0.1,0.1-0.1,0.4-0.1,0.6v4.7h4.7V1.9   c0-0.3,0-0.5-0.1-0.6C21.1,1.1,21,1,20.7,0.9l-0.4-0.1V0.6h5v0.2l-0.4,0.2c-0.2,0.1-0.4,0.2-0.5,0.4c-0.1,0.2-0.1,0.4-0.1,0.6v10.2   c0,0.2,0,0.4,0.1,0.6c0.1,0.2,0.3,0.3,0.5,0.4l0.4,0.2v0.2h-5v-0.2l0.4-0.1c0.3-0.1,0.4-0.2,0.5-0.4c0.1-0.1,0.1-0.4,0.1-0.6V7   h-4.7v5.1c0,0.5,0.2,0.8,0.6,1l0.3,0.1v0.2H12.7z"></path>
	<path class="st0" d="M26.7,13.4v-0.2l0.4-0.2c0.2-0.1,0.4-0.2,0.5-0.4c0.1-0.1,0.1-0.4,0.1-0.6V1.9c0-0.3,0-0.5-0.1-0.6   c-0.1-0.1-0.2-0.3-0.5-0.4l-0.4-0.2V0.6H36l0.1,3h-0.2l-0.8-1.8c-0.1-0.2-0.2-0.4-0.4-0.6C34.6,1,34.4,1,34.1,1h-3.5v5.6h2.1   c0.3,0,0.5-0.1,0.6-0.2c0.1-0.1,0.3-0.3,0.4-0.6L34,5.1h0.2v3.5H34l-0.4-0.8c-0.1-0.2-0.2-0.4-0.4-0.6C33.2,7,33,7,32.7,7h-2.1V13   h3.9c0.3,0,0.5-0.1,0.6-0.2c0.1-0.1,0.3-0.3,0.4-0.6l0.8-1.8h0.2l-0.1,3H26.7z"></path>
	<path class="st0" d="M46.9,13.8c-0.7,0-1.4-0.1-2.2-0.3c-0.7-0.2-1.4-0.4-1.8-0.7l0.1-2.6h0.2l0.6,1.3c0.2,0.4,0.4,0.7,0.6,1   c0.2,0.3,0.5,0.5,0.9,0.7c0.3,0.1,0.5,0.2,0.7,0.3c0.2,0,0.5,0.1,0.8,0.1c0.8,0,1.4-0.2,1.9-0.6c0.5-0.4,0.7-1,0.7-1.7   c0-0.6-0.2-1.1-0.5-1.5c-0.3-0.4-0.8-0.7-1.5-1l-0.8-0.4c-1.1-0.5-2-1.1-2.6-1.7C43.3,5.9,43,5,43,3.9c0-0.8,0.2-1.4,0.6-2   c0.4-0.6,0.9-1,1.7-1.3s1.5-0.4,2.5-0.4c0.7,0,1.3,0.1,2,0.3c0.6,0.2,1.2,0.4,1.6,0.7l-0.1,2.3H51l-0.8-1.5c-0.2-0.5-0.4-0.8-0.7-1   C49.3,1,49,0.8,48.7,0.8c-0.2-0.1-0.3-0.1-0.5-0.1c-0.1,0-0.3,0-0.5,0c-0.7,0-1.2,0.2-1.7,0.6c-0.5,0.4-0.7,0.9-0.7,1.5   c0,0.7,0.2,1.2,0.5,1.6c0.4,0.4,0.9,0.7,1.5,1.1l0.9,0.4c1.2,0.5,2.1,1.1,2.7,1.7c0.5,0.6,0.8,1.4,0.8,2.4c0,1.1-0.4,2.1-1.3,2.8   C49.7,13.4,48.4,13.8,46.9,13.8z"></path>
	<path class="st0" d="M53.2,13.4v-0.2l0.4-0.2c0.2-0.1,0.4-0.2,0.5-0.4c0.1-0.1,0.1-0.4,0.1-0.6V1.9c0-0.3,0-0.5-0.1-0.6   c-0.1-0.1-0.2-0.3-0.5-0.4l-0.4-0.2V0.6h9.3l0.1,3h-0.2l-0.8-1.8c-0.1-0.2-0.2-0.4-0.4-0.6C61.1,1,60.9,1,60.7,1h-3.5v5.6h2.1   c0.3,0,0.5-0.1,0.6-0.2c0.1-0.1,0.3-0.3,0.4-0.6l0.4-0.8h0.2v3.5h-0.2l-0.4-0.8c-0.1-0.2-0.2-0.4-0.4-0.6C59.7,7,59.5,7,59.3,7   h-2.1V13h3.9c0.3,0,0.5-0.1,0.6-0.2c0.1-0.1,0.3-0.3,0.4-0.6l0.8-1.8h0.2l-0.1,3H53.2z"></path>
	<path class="st0" d="M69.4,13.5L65.3,1.9c-0.1-0.3-0.2-0.5-0.4-0.6c-0.1-0.1-0.4-0.3-0.6-0.3l-0.5-0.2V0.6h5.6v0.2l-0.6,0.2   c-0.3,0.1-0.5,0.2-0.5,0.4s0,0.4,0.1,0.7l2.9,8.5l2.9-8.6c0.1-0.3,0.2-0.5,0.1-0.7c0-0.2-0.2-0.3-0.5-0.4l-0.5-0.1V0.6h2.7v0.2   l-0.5,0.2c-0.2,0.1-0.4,0.2-0.5,0.3c-0.1,0.2-0.2,0.4-0.3,0.6l-3.9,11.6H69.4z"></path>
	<path class="st0" d="M77.1,13.4v-0.2l0.4-0.2c0.2-0.1,0.4-0.2,0.5-0.4c0.1-0.1,0.1-0.4,0.1-0.6V1.9c0-0.3,0-0.5-0.1-0.6   C78,1.2,77.8,1,77.6,0.9l-0.4-0.2V0.6h9.3l0.1,3h-0.2l-0.8-1.8c-0.1-0.2-0.2-0.4-0.4-0.6C85,1,84.8,1,84.6,1h-3.5v5.6h2.1   c0.3,0,0.5-0.1,0.6-0.2c0.1-0.1,0.3-0.3,0.4-0.6l0.4-0.8h0.2v3.5h-0.2l-0.4-0.8c-0.1-0.2-0.2-0.4-0.4-0.6C83.6,7,83.4,7,83.2,7   h-2.1V13H85c0.3,0,0.5-0.1,0.6-0.2c0.1-0.1,0.3-0.3,0.4-0.6l0.8-1.8H87l-0.1,3H77.1z"></path>
	<path class="st0" d="M88.7,13.4v-0.2l0.6-0.2c0.2-0.1,0.4-0.2,0.5-0.4c0.1-0.2,0.2-0.4,0.2-0.7V2.6c-0.1-0.3-0.3-0.5-0.3-0.7   c-0.1-0.2-0.2-0.3-0.3-0.4c-0.1-0.1-0.2-0.2-0.4-0.4l-0.3-0.3V0.6H92l6.5,8.8V2.1c0-0.3,0-0.5-0.1-0.7c-0.1-0.2-0.3-0.3-0.5-0.4   l-0.6-0.2V0.6h2.8v0.2l-0.5,0.2C99.2,1,99.1,1.2,99,1.4C99,1.6,99,1.8,99,2v11.4h-1.1L90.4,3.3V12c0,0.3,0,0.5,0.1,0.7   c0.1,0.2,0.2,0.3,0.5,0.4l0.6,0.2v0.2H88.7z"></path>
</g>
</svg>